<svg width="168" height="41" viewBox="0 0 168 41" fill="none" xmlns="http://www.w3.org/2000/svg">
<path d="M0 37.2015V14.8474H0.0291828L11.965 31.7735L10.1556 31.3649L22.0622 14.8474H22.1206V37.2015H17.8891V24.3902L18.1517 26.5789L10.8852 36.9097H10.8268L3.35603 26.5789L4.0856 24.5653V37.2015H0Z" fill="#151212"/>
<path d="M33.2464 30.5186L25.3378 15.7229H30.5615L36.1063 26.8708L34.8514 26.9583L40.3086 15.7229H45.5323L37.4779 30.5186V37.2015H33.2464V30.5186Z" fill="#151212"/>
<path d="M48.7331 15.7229H52.9646V33.1159H63.0619V37.2015H48.7331V15.7229Z" fill="#151212"/>
<path d="M66.7572 24.4486H70.8428V37.2015H66.7572V24.4486ZM66.6696 19.9252C66.6696 19.3221 66.9031 18.826 67.37 18.4369C67.8564 18.0478 68.372 17.8532 68.9167 17.8532C69.4615 17.8532 69.9576 18.0478 70.405 18.4369C70.872 18.826 71.1054 19.3221 71.1054 19.9252C71.1054 20.5283 70.872 21.0245 70.405 21.4136C69.9576 21.7832 69.4615 21.968 68.9167 21.968C68.372 21.968 67.8564 21.7832 67.37 21.4136C66.9031 21.0245 66.6696 20.5283 66.6696 19.9252Z" fill="#151212"/>
<path d="M94.9531 38.077L78.669 23.3688L79.9239 24.0692L80.0114 37.2015H75.7216V14.8766H75.8967L91.8305 29.5264L90.8967 29.1178L90.8091 15.7229H95.0698V38.077H94.9531Z" fill="#151212"/>
<path d="M104.891 23.3688L104.774 24.4486L105.416 23.6315L112.42 15.7229H117.907L109.035 25.3532L117.936 37.2015H112.566L105.942 28.0381L104.891 29.0886V37.2015H100.601V15.7229H104.891V23.3688Z" fill="#151212"/>
<path d="M135.947 35.4213C135.713 35.6159 135.276 35.8785 134.634 36.2093C134.011 36.54 133.243 36.8318 132.328 37.0848C131.414 37.3377 130.402 37.4544 129.293 37.4349C127.6 37.396 126.083 37.0945 124.741 36.5303C123.418 35.9466 122.289 35.1587 121.355 34.1665C120.441 33.1743 119.741 32.0361 119.254 30.7521C118.768 29.468 118.525 28.0964 118.525 26.6373C118.525 25.003 118.768 23.505 119.254 22.1431C119.76 20.7813 120.47 19.6042 121.385 18.612C122.318 17.6198 123.427 16.8513 124.711 16.3066C125.995 15.7618 127.416 15.4894 128.972 15.4894C130.412 15.4894 131.686 15.684 132.795 16.0731C133.904 16.4622 134.809 16.8805 135.509 17.328L133.846 21.326C133.359 20.9564 132.707 20.577 131.89 20.1879C131.093 19.7793 130.169 19.575 129.118 19.575C128.301 19.575 127.513 19.7501 126.754 20.1003C126.015 20.4311 125.353 20.9077 124.77 21.5303C124.206 22.1529 123.758 22.8824 123.427 23.719C123.097 24.5361 122.931 25.4311 122.931 26.4038C122.931 27.435 123.077 28.3785 123.369 29.2346C123.68 30.0906 124.118 30.8299 124.682 31.4525C125.246 32.0556 125.918 32.5225 126.696 32.8532C127.493 33.184 128.388 33.3493 129.381 33.3493C130.529 33.3493 131.511 33.1645 132.328 32.7949C133.145 32.4252 133.768 32.0361 134.196 31.6276L135.947 35.4213Z" fill="#151212"/>
<path d="M69.0039 23.3429C66.9982 23.3429 65.3722 21.7169 65.3722 19.7111C65.3722 17.7054 66.9982 16.0793 69.0039 16.0793C71.0097 16.0793 72.6357 17.7054 72.6357 19.7111C72.6357 21.7169 71.0097 23.3429 69.0039 23.3429Z" fill="#F20530"/>
<path fill-rule="evenodd" clip-rule="evenodd" d="M66.5828 19.7111C66.5828 21.0483 67.6668 22.1323 69.0039 22.1323C70.3411 22.1323 71.4251 21.0483 71.4251 19.7111C71.4251 18.3739 70.3411 17.2899 69.0039 17.2899C67.6668 17.2899 66.5828 18.3739 66.5828 19.7111ZM65.3722 19.7111C65.3722 21.7169 66.9982 23.3429 69.0039 23.3429C71.0097 23.3429 72.6357 21.7169 72.6357 19.7111C72.6357 17.7054 71.0097 16.0793 69.0039 16.0793C66.9982 16.0793 65.3722 17.7054 65.3722 19.7111Z" fill="#151212"/>
<path d="M153.409 40.1196C150.991 40.1196 149.031 38.1598 149.031 35.7422C149.031 33.3246 150.991 31.3647 153.409 31.3647C155.826 31.3647 157.786 33.3246 157.786 35.7422C157.786 38.1598 155.826 40.1196 153.409 40.1196Z" fill="#F20530"/>
<path fill-rule="evenodd" clip-rule="evenodd" d="M150.242 35.7422C150.242 37.4912 151.66 38.909 153.409 38.909C155.158 38.909 156.576 37.4912 156.576 35.7422C156.576 33.9932 155.158 32.5753 153.409 32.5753C151.66 32.5753 150.242 33.9932 150.242 35.7422ZM149.031 35.7422C149.031 38.1598 150.991 40.1196 153.409 40.1196C155.826 40.1196 157.786 38.1598 157.786 35.7422C157.786 33.3246 155.826 31.3647 153.409 31.3647C150.991 31.3647 149.031 33.3246 149.031 35.7422Z" fill="#151212"/>
<path d="M153.409 19.6916C150.991 19.6916 149.031 17.7318 149.031 15.3142C149.031 12.8966 150.991 10.9368 153.409 10.9368C155.826 10.9368 157.786 12.8966 157.786 15.3142C157.786 17.7318 155.826 19.6916 153.409 19.6916Z" fill="#F20530"/>
<path fill-rule="evenodd" clip-rule="evenodd" d="M150.242 15.3142C150.242 17.0632 151.66 18.481 153.409 18.481C155.158 18.481 156.576 17.0632 156.576 15.3142C156.576 13.5652 155.158 12.1474 153.409 12.1474C151.66 12.1474 150.242 13.5652 150.242 15.3142ZM149.031 15.3142C149.031 17.7318 150.991 19.6916 153.409 19.6916C155.826 19.6916 157.786 17.7318 157.786 15.3142C157.786 12.8966 155.826 10.9368 153.409 10.9368C150.991 10.9368 149.031 12.8966 149.031 15.3142Z" fill="#151212"/>
<path d="M157.785 25.5281C157.785 27.9457 155.825 29.9055 153.408 29.9055C150.99 29.9055 149.03 27.9457 149.03 25.5281C149.03 23.1105 150.99 21.1506 153.408 21.1506C155.825 21.1506 157.785 23.1105 157.785 25.5281Z" fill="#F20530"/>
<path fill-rule="evenodd" clip-rule="evenodd" d="M153.408 28.6949C155.157 28.6949 156.575 27.2771 156.575 25.5281C156.575 23.7791 155.157 22.3612 153.408 22.3612C151.659 22.3612 150.241 23.7791 150.241 25.5281C150.241 27.2771 151.659 28.6949 153.408 28.6949ZM153.408 29.9055C155.825 29.9055 157.785 27.9457 157.785 25.5281C157.785 23.1105 155.825 21.1506 153.408 21.1506C150.99 21.1506 149.03 23.1105 149.03 25.5281C149.03 27.9457 150.99 29.9055 153.408 29.9055Z" fill="#151212"/>
<path d="M159.245 21.1509C159.245 18.7333 161.205 16.7735 163.623 16.7735C166.04 16.7735 168 18.7333 168 21.1509C168 23.5685 166.04 25.5283 163.623 25.5283C161.205 25.5283 159.245 23.5685 159.245 21.1509Z" fill="#F20530"/>
<path fill-rule="evenodd" clip-rule="evenodd" d="M163.623 17.9841C161.874 17.9841 160.456 19.4019 160.456 21.1509C160.456 22.8999 161.874 24.3177 163.623 24.3177C165.372 24.3177 166.789 22.8999 166.789 21.1509C166.789 19.4019 165.372 17.9841 163.623 17.9841ZM163.623 16.7735C161.205 16.7735 159.245 18.7333 159.245 21.1509C159.245 23.5685 161.205 25.5283 163.623 25.5283C166.04 25.5283 168 23.5685 168 21.1509C168 18.7333 166.04 16.7735 163.623 16.7735Z" fill="#151212"/>
<path d="M147.571 21.1509C147.571 23.5685 145.611 25.5283 143.194 25.5283C140.776 25.5283 138.816 23.5685 138.816 21.1509C138.816 18.7333 140.776 16.7734 143.194 16.7734C145.611 16.7734 147.571 18.7333 147.571 21.1509Z" fill="#F20530"/>
<path fill-rule="evenodd" clip-rule="evenodd" d="M143.194 24.3177C144.943 24.3177 146.361 22.8999 146.361 21.1509C146.361 19.4019 144.943 17.984 143.194 17.984C141.445 17.984 140.027 19.4019 140.027 21.1509C140.027 22.8999 141.445 24.3177 143.194 24.3177ZM143.194 25.5283C145.611 25.5283 147.571 23.5685 147.571 21.1509C147.571 18.7333 145.611 16.7734 143.194 16.7734C140.776 16.7734 138.816 18.7333 138.816 21.1509C138.816 23.5685 140.776 25.5283 143.194 25.5283Z" fill="#151212"/>
<path d="M143.194 26.9873C140.776 26.9873 138.816 28.9472 138.816 31.3648C138.816 33.7823 140.776 35.7422 143.194 35.7422C145.611 35.7422 147.571 33.7823 147.571 31.3648C147.571 28.9472 145.611 26.9873 143.194 26.9873Z" fill="#F20530"/>
<path fill-rule="evenodd" clip-rule="evenodd" d="M140.027 31.3648C140.027 29.6158 141.445 28.1979 143.194 28.1979C144.943 28.1979 146.361 29.6158 146.361 31.3648C146.361 33.1138 144.943 34.5316 143.194 34.5316C141.445 34.5316 140.027 33.1138 140.027 31.3648ZM138.816 31.3648C138.816 28.9472 140.776 26.9873 143.194 26.9873C145.611 26.9873 147.571 28.9472 147.571 31.3648C147.571 33.7823 145.611 35.7422 143.194 35.7422C140.776 35.7422 138.816 33.7823 138.816 31.3648Z" fill="#151212"/>
<path d="M159.245 31.3645C159.245 33.7821 161.205 35.7419 163.623 35.7419C166.04 35.7419 168 33.7821 168 31.3645C168 28.9469 166.04 26.9871 163.623 26.9871C161.205 26.9871 159.245 28.9469 159.245 31.3645Z" fill="#F20530"/>
<path fill-rule="evenodd" clip-rule="evenodd" d="M163.623 34.5313C161.874 34.5313 160.456 33.1135 160.456 31.3645C160.456 29.6155 161.874 28.1977 163.623 28.1977C165.372 28.1977 166.789 29.6155 166.789 31.3645C166.789 33.1135 165.372 34.5313 163.623 34.5313ZM163.623 35.7419C161.205 35.7419 159.245 33.7821 159.245 31.3645C159.245 28.9469 161.205 26.9871 163.623 26.9871C166.04 26.9871 168 28.9469 168 31.3645C168 33.7821 166.04 35.7419 163.623 35.7419Z" fill="#151212"/>
<path d="M159.091 3.27877C160.041 3.82734 160.041 5.19876 159.091 5.74733L153.747 8.83304C152.796 9.38161 151.609 8.69589 151.609 7.59875L151.609 1.42735C151.609 0.33021 152.796 -0.355499 153.747 0.19307L159.091 3.27877Z" fill="#98F205"/>
<path fill-rule="evenodd" clip-rule="evenodd" d="M153.39 8.2159L158.735 5.13019C159.21 4.85591 159.21 4.1702 158.735 3.89591L153.39 0.810211C152.915 0.535925 152.321 0.878781 152.321 1.42735L152.321 7.59875C152.321 8.14733 152.915 8.49018 153.39 8.2159ZM159.091 5.74733C160.041 5.19877 160.041 3.82734 159.091 3.27877L153.747 0.19307C152.796 -0.355499 151.609 0.33021 151.609 1.42735L151.609 7.59875C151.609 8.69589 152.796 9.38161 153.747 8.83304L159.091 5.74733Z" fill="#151212"/>
</svg>
