<svg width="25" height="35" viewBox="0 0 25 35" fill="none" xmlns="http://www.w3.org/2000/svg">
<path d="M12.5001 34.3682C10.4291 34.3682 8.75018 32.6893 8.75018 30.6183C8.75018 28.5473 10.4291 26.8684 12.5001 26.8684C14.5711 26.8684 16.25 28.5473 16.25 30.6183C16.25 32.6893 14.5711 34.3682 12.5001 34.3682Z" fill="#F20530"/>
<path fill-rule="evenodd" clip-rule="evenodd" d="M9.78724 30.6183C9.78724 32.1166 11.0018 33.3312 12.5001 33.3312C13.9984 33.3312 15.2129 32.1166 15.2129 30.6183C15.2129 29.12 13.9984 27.9055 12.5001 27.9055C11.0018 27.9055 9.78724 29.12 9.78724 30.6183ZM8.75018 30.6183C8.75018 32.6893 10.4291 34.3682 12.5001 34.3682C14.5711 34.3682 16.25 32.6893 16.25 30.6183C16.25 28.5473 14.5711 26.8684 12.5001 26.8684C10.4291 26.8684 8.75018 28.5473 8.75018 30.6183Z" fill="#151212"/>
<path d="M12.5001 16.869C10.4291 16.869 8.75018 15.1901 8.75018 13.119C8.75018 11.048 10.4291 9.36914 12.5001 9.36914C14.5711 9.36914 16.25 11.048 16.25 13.1191C16.25 15.1901 14.5711 16.869 12.5001 16.869Z" fill="#F20530"/>
<path fill-rule="evenodd" clip-rule="evenodd" d="M9.78724 13.119C9.78724 14.6173 11.0018 15.8319 12.5001 15.8319C13.9984 15.8319 15.2129 14.6173 15.2129 13.1191C15.2129 11.6208 13.9984 10.4062 12.5001 10.4062C11.0018 10.4062 9.78724 11.6208 9.78724 13.119ZM8.75018 13.119C8.75018 15.1901 10.4291 16.869 12.5001 16.869C14.5711 16.869 16.25 15.1901 16.25 13.1191C16.25 11.048 14.5711 9.36914 12.5001 9.36914C10.4291 9.36914 8.75018 11.048 8.75018 13.119Z" fill="#151212"/>
<path d="M16.2498 21.8686C16.2498 23.9396 14.5709 25.6185 12.4999 25.6185C10.4289 25.6185 8.75 23.9396 8.75 21.8686C8.75 19.7975 10.4289 18.1187 12.4999 18.1187C14.5709 18.1187 16.2498 19.7975 16.2498 21.8686Z" fill="#F20530"/>
<path fill-rule="evenodd" clip-rule="evenodd" d="M12.4999 24.5814C13.9982 24.5814 15.2128 23.3668 15.2128 21.8686C15.2128 20.3703 13.9982 19.1557 12.4999 19.1557C11.0016 19.1557 9.78705 20.3703 9.78705 21.8686C9.78705 23.3668 11.0016 24.5814 12.4999 24.5814ZM12.4999 25.6185C14.5709 25.6185 16.2498 23.9396 16.2498 21.8686C16.2498 19.7975 14.5709 18.1187 12.4999 18.1187C10.4289 18.1187 8.75 19.7975 8.75 21.8686C8.75 23.9396 10.4289 25.6185 12.4999 25.6185Z" fill="#151212"/>
<path d="M17.5002 18.119C17.5002 16.048 19.1791 14.3691 21.2501 14.3691C23.3211 14.3691 25 16.048 25 18.119C25 20.19 23.3211 21.8689 21.2501 21.8689C19.1791 21.8689 17.5002 20.19 17.5002 18.119Z" fill="#F20530"/>
<path fill-rule="evenodd" clip-rule="evenodd" d="M21.2501 15.4061C19.7518 15.4061 18.5372 16.6207 18.5372 18.119C18.5372 19.6173 19.7518 20.8318 21.2501 20.8318C22.7484 20.8318 23.9629 19.6173 23.9629 18.119C23.9629 16.6207 22.7484 15.4061 21.2501 15.4061ZM21.2501 14.3691C19.1791 14.3691 17.5002 16.048 17.5002 18.119C17.5002 20.19 19.1791 21.8689 21.2501 21.8689C23.3211 21.8689 25 20.19 25 18.119C25 16.048 23.3211 14.3691 21.2501 14.3691Z" fill="#151212"/>
<path d="M7.49982 18.1191C7.49982 20.1901 5.82093 21.869 3.74991 21.869C1.67889 21.869 0 20.1901 0 18.1191C0 16.048 1.67889 14.3691 3.74991 14.3691C5.82093 14.3691 7.49982 16.048 7.49982 18.1191Z" fill="#F20530"/>
<path fill-rule="evenodd" clip-rule="evenodd" d="M3.74991 20.8319C5.24818 20.8319 6.46276 19.6173 6.46276 18.1191C6.46276 16.6208 5.24818 15.4062 3.74991 15.4062C2.25164 15.4062 1.03705 16.6208 1.03705 18.1191C1.03705 19.6173 2.25164 20.8319 3.74991 20.8319ZM3.74991 21.869C5.82093 21.869 7.49982 20.1901 7.49982 18.1191C7.49982 16.048 5.82093 14.3691 3.74991 14.3691C1.67889 14.3691 0 16.048 0 18.1191C0 20.1901 1.67889 21.869 3.74991 21.869Z" fill="#151212"/>
<path d="M3.75009 23.1188C1.67907 23.1188 0.000180467 24.7977 0.000180557 26.8687C0.000180648 28.9398 1.67907 30.6187 3.75009 30.6187C5.82111 30.6187 7.5 28.9398 7.5 26.8687C7.5 24.7977 5.82111 23.1188 3.75009 23.1188Z" fill="#F20530"/>
<path fill-rule="evenodd" clip-rule="evenodd" d="M1.03724 26.8687C1.03724 25.3705 2.25182 24.1559 3.75009 24.1559C5.24836 24.1559 6.46295 25.3705 6.46295 26.8687C6.46295 28.367 5.24836 29.5816 3.75009 29.5816C2.25182 29.5816 1.03724 28.367 1.03724 26.8687ZM0.000180557 26.8687C0.000180467 24.7977 1.67907 23.1188 3.75009 23.1188C5.82111 23.1188 7.5 24.7977 7.5 26.8687C7.5 28.9398 5.82111 30.6187 3.75009 30.6187C1.67907 30.6187 0.000180648 28.9398 0.000180557 26.8687Z" fill="#151212"/>
<path d="M17.5002 26.8686C17.5002 28.9396 19.1791 30.6185 21.2501 30.6185C23.3211 30.6185 25 28.9396 25 26.8686C25 24.7975 23.3211 23.1187 21.2501 23.1187C19.1791 23.1187 17.5002 24.7975 17.5002 26.8686Z" fill="#F20530"/>
<path fill-rule="evenodd" clip-rule="evenodd" d="M21.2501 29.5814C19.7518 29.5814 18.5372 28.3668 18.5372 26.8686C18.5372 25.3703 19.7518 24.1557 21.2501 24.1557C22.7484 24.1557 23.9629 25.3703 23.9629 26.8686C23.9629 28.3668 22.7484 29.5814 21.2501 29.5814ZM21.2501 30.6185C19.1791 30.6185 17.5002 28.9396 17.5002 26.8686C17.5002 24.7975 19.1791 23.1187 21.2501 23.1187C23.3211 23.1187 25 24.7975 25 26.8686C25 28.9396 23.3211 30.6185 21.2501 30.6185Z" fill="#151212"/>
<path d="M17.369 2.80875C18.183 3.27868 18.183 4.4535 17.369 4.92343L12.7906 7.56679C11.9767 8.03672 10.9592 7.44931 10.9592 6.50945L10.9592 1.22273C10.9592 0.282873 11.9767 -0.304537 12.7906 0.165393L17.369 2.80875Z" fill="#98F205"/>
<path fill-rule="evenodd" clip-rule="evenodd" d="M12.4854 7.03812L17.0638 4.39476C17.4708 4.1598 17.4708 3.57239 17.0638 3.33742L12.4854 0.694064C12.0784 0.459098 11.5697 0.752805 11.5697 1.22273L11.5697 6.50945C11.5697 6.97938 12.0784 7.27308 12.4854 7.03812ZM17.369 4.92343C18.183 4.4535 18.183 3.27868 17.369 2.80875L12.7906 0.165393C11.9767 -0.304537 10.9592 0.282873 10.9592 1.22273L10.9592 6.50945C10.9592 7.44931 11.9767 8.03672 12.7906 7.56679L17.369 4.92343Z" fill="#151212"/>
</svg>
